<svg xmlns="http://www.w3.org/2000/svg" width="482.48901" height="152.502" viewBox="0 0 127.65855 40.349488"><path d="M62.756 12.69v4.586h-1.914V14.38h-9.946v-1.69Zm-6.861 9.74v-2.24h-6.103V18.5h14.136v1.69h-6.12v2.24h4.982v5.361h-1.913v-3.689h-10.12V22.43zM77.46 12.38h1.914v8.585H77.46zm.034 11.929h-8.291v1.552h8.291zm-10.17-2.827h1.878v1.276h8.292v-1.276h1.88v5.964h-12.05Zm7.43-.81h-8.292v-4.69h6.223V14.45h-6.223v-1.62h8.119v4.705h-6.223v1.552h6.395zM94.957 12.69v4.586h-1.913V14.38h-9.947v-1.69zm-6.86 9.74v-2.24h-6.104V18.5H96.13v1.69h-6.12v2.24h4.983v5.361h-1.914v-3.689H82.96V22.43zM109.661 12.38h1.914v15.377h-1.914v-8.085h-2.034v-1.69h2.034zm-4.36 6.447c0-.39-.076-.755-.225-1.094-.15-.339-.351-.64-.603-.905a3.499 3.499 0 0 0-.906-.595 2.599 2.599 0 0 0-1.094-.233c-.38 0-.741.078-1.086.233a3.165 3.165 0 0 0-.897.595 3.27 3.27 0 0 0-.612.905c-.155.339-.232.704-.232 1.094 0 .39.077.756.232 1.095.155.34.36.635.612.888.253.253.552.456.897.612.345.155.706.232 1.086.232.39 0 .755-.077 1.094-.232a3.27 3.27 0 0 0 .906-.612c.252-.253.453-.549.603-.888.149-.34.224-.704.224-1.095m1.896 0a4.14 4.14 0 0 1-.379 1.742 4.577 4.577 0 0 1-1.017 1.43 4.815 4.815 0 0 1-1.491.982 4.645 4.645 0 0 1-1.836.363c-.644 0-1.25-.12-1.819-.363A4.808 4.808 0 0 1 99.163 22a4.555 4.555 0 0 1-1.017-1.43 4.132 4.132 0 0 1-.379-1.742c0-.62.126-1.207.379-1.758a4.565 4.565 0 0 1 1.017-1.43 4.975 4.975 0 0 1 1.491-.966 4.602 4.602 0 0 1 1.819-.362c.655 0 1.267.12 1.836.362a4.983 4.983 0 0 1 1.491.965c.425.403.764.88 1.017 1.43a4.18 4.18 0 0 1 .38 1.76M125.573 12.38h1.896v11.74h-1.896v-5.672h-2.138v-1.655h2.138zm-4.43 3.379c0-.552-.2-1.014-.595-1.388a1.982 1.982 0 0 0-1.406-.56 1.98 1.98 0 0 0-1.404.56 1.83 1.83 0 0 0-.595 1.388c0 .54.198.997.595 1.37.396.374.864.56 1.404.56.54 0 1.01-.186 1.406-.56.396-.373.594-.83.594-1.37m1.844 0c0 .494-.103.954-.31 1.38a4.194 4.194 0 0 1-.81 1.137 4.02 4.02 0 0 1-1.232.758 4.022 4.022 0 0 1-1.492.276 4.02 4.02 0 0 1-1.49-.276 4.015 4.015 0 0 1-1.233-.758 4.184 4.184 0 0 1-.81-1.138 3.108 3.108 0 0 1-.31-1.38c0-.493.103-.956.31-1.387.206-.43.477-.813.81-1.146a4.033 4.033 0 0 1 2.723-1.034 4.039 4.039 0 0 1 2.724 1.034c.333.333.603.715.81 1.146.207.431.31.894.31 1.388m-7.808 11.74v-4.396h1.896v2.723h10.584v1.672zm9.17-5.879h-4.068v2.327h-1.913V21.62h-4.24v-1.69h10.222z" style="fill:#575759;fill-opacity:1;fill-rule:nonzero;stroke:none;stroke-width:.462076"/><path d="M40.35 20.177c0 11.138-9.036 20.172-20.175 20.172C9.035 40.343 0 31.315 0 20.177 0 9.03 9.036 0 20.175 0c11.144 0 20.174 9.03 20.174 20.177" style="clip-rule:evenodd;overflow:hidden;fill:#fff;fill-opacity:1;fill-rule:evenodd;stroke-width:.0560408;stroke-linejoin:round;stroke-miterlimit:2"/><path d="M29.65 18.74c-3.213-2.184-7.327-1.294-9.487 1.99a6.71 6.71 0 0 1-5.58 3.084c-3.437 0-5.79-2.418-6.486-4.918h-.001a10.752 10.752 0 0 0-.02-.07c-.006-.028-.015-.056-.022-.085-.273-1.043-.341-1.543-.341-2.651 0-5.984 6.138-12.643 14.978-12.643 9.051 0 14.23 6.891 15.565 10.72l-.067-.204c-2.568-7.49-9.672-12.876-18.035-12.876C9.63 1.087 1.093 9.62 1.093 20.149c0 9.408 6.787 17.465 16.202 17.465 7.508 0 12.553-4.212 14.868-10.014 1.27-3.171.37-6.9-2.513-8.86" style="fill:#003863;fill-opacity:1;fill-rule:nonzero;stroke:none;stroke-width:.372959"/><path d="M38.374 14.538c-1.112-3.734-6.33-11.091-15.684-11.091-8.84 0-14.978 6.658-14.978 12.641 0 1.11.069 1.61.341 2.653a5.657 5.657 0 0 1-.173-1.36c0-6.23 6.237-10.547 12.648-10.547 8.682 0 15.719 7.038 15.719 15.716a17.325 17.325 0 0 1-9.607 15.523v.004c7.335-2.658 12.572-9.681 12.572-17.929 0-1.952-.26-3.674-.84-5.61" style="fill:#eb1738;fill-opacity:1;fill-rule:nonzero;stroke:none;stroke-width:.372959"/></svg>